<?xml version="1.0" encoding="UTF-8" standalone="no"?>
<!-- Created with Inkscape (http://www.inkscape.org/) -->

<svg
   width="45.00507mm"
   height="36.088139mm"
   viewBox="0 0 45.00507 36.088139"
   version="1.1"
   id="svg1"
   xml:space="preserve"
   xmlns="http://www.w3.org/2000/svg"
   xmlns:svg="http://www.w3.org/2000/svg"><defs
     id="defs1" /><g
     id="layer1"
     transform="translate(-613.56878,-279.92918)"><path
       id="path71-3-3-7-7-4-7-1-31-8-0-4-3-7-8-2-1-0-8"
       style="font-size:2.6242px;line-height:1;font-family:'Roboto Condensed';-inkscape-font-specification:'Roboto Condensed, ';text-align:center;letter-spacing:0px;text-anchor:middle;fill:#ffffff;fill-opacity:1;stroke-width:0.894553"
       d="m 636.2176,279.92917 c -0.46478,0 -0.88802,0.0849 -1.27166,0.25558 -0.38394,0.16623 -0.71599,0.41533 -0.99315,0.74807 -0.27716,0.33247 -0.49073,0.74963 -0.6398,1.24856 -0.14848,0.49469 -0.22212,1.06904 -0.22212,1.72573 v 1.61739 c 0,0.65671 0.0735,1.23455 0.22212,1.7335 0.15327,0.49419 0.37044,0.90801 0.64745,1.24076 0.27701,0.33247 0.60681,0.58429 0.9906,0.75067 0.38379,0.16624 0.80958,0.2476 1.27436,0.2476 0.48158,0 0.91366,-0.0813 1.29745,-0.2476 0.38395,-0.16622 0.71255,-0.41832 0.98551,-0.75067 0.27296,-0.33245 0.47813,-0.74612 0.61895,-1.24076 0.14548,-0.49919 0.21927,-1.07679 0.21927,-1.7335 v -1.61739 c 0,-0.65669 -0.075,-1.23115 -0.21927,-1.72573 -0.14397,-0.49918 -0.35379,-0.91609 -0.62675,-1.24856 -0.26861,-0.33244 -0.59736,-0.5817 -0.98535,-0.74807 -0.38395,-0.17072 -0.81573,-0.25558 -1.29761,-0.25558 z m -22.64885,0.12628 v 9.31492 h 1.17642 v -4.11447 h 3.14188 v -1.01117 h -3.14188 v -3.1781 h 3.67325 v -1.01118 h -3.67325 -0.22166 z m 7.48343,0 -3,9.31492 h 1.20207 l 0.73009,-2.4377 h 3.14697 l 0.73009,2.4377 h 1.19952 l -3.00015,-9.31492 h -0.25256 z m 5.29075,0 v 9.31492 h 1.17628 v -3.77396 h 1.63805 l 1.65875,3.77396 h 1.25876 v -0.0774 l -1.80573,-3.96485 c 0.23667,-0.10828 0.44634,-0.24458 0.62946,-0.41032 0.26861,-0.2471 0.47318,-0.54545 0.61401,-0.8951 0.14098,-0.3539 0.21161,-0.74471 0.21161,-1.17111 0,-0.60551 -0.10648,-1.11612 -0.32005,-1.52976 -0.20907,-0.41779 -0.52012,-0.73339 -0.93376,-0.94668 -0.40929,-0.21315 -0.91651,-0.31998 -1.52197,-0.31998 z m 17.82498,0 v 9.31492 h 1.17882 3.83073 v -1.00605 h -3.83073 v -3.29929 h 3.28646 v -1.00346 h -3.28646 v -2.99494 h 3.76624 v -1.01118 h -3.76624 z m 6.51352,0 v 9.31492 h 1.16848 v -3.63464 l -0.11099,-3.62176 2.43264,7.2564 h 0.89506 l 2.43519,-7.24606 -0.11099,3.61142 v 3.63464 h 1.16863 v -9.31492 h -0.364 -1.13758 l -2.43263,7.59434 -2.43503,-7.59434 h -0.51338 z m -14.46383,0.92094 c 0.3199,0 0.60321,0.0574 0.84602,0.1727 0.24312,0.11083 0.44784,0.28404 0.61401,0.51851 0.16633,0.23461 0.29156,0.53701 0.37645,0.90801 0.0855,0.36691 0.12598,0.80648 0.12598,1.31818 v 1.63029 c 0,0.516 -0.0405,0.96011 -0.12598,1.33106 -0.081,0.36641 -0.20517,0.6691 -0.3715,0.908 -0.16212,0.23462 -0.36684,0.41134 -0.61386,0.52624 -0.24311,0.11083 -0.52372,0.16523 -0.84362,0.16523 -0.29846,0 -0.56961,-0.0543 -0.81258,-0.16523 -0.24311,-0.11488 -0.45218,-0.29151 -0.62675,-0.52624 -0.17023,-0.23859 -0.30356,-0.54126 -0.39744,-0.908 -0.09,-0.37089 -0.13498,-0.81506 -0.13498,-1.33106 v -1.63029 c 0,-0.5117 0.045,-0.95142 0.13498,-1.31818 0.093,-0.37089 0.22676,-0.6734 0.39744,-0.90801 0.17022,-0.23462 0.37479,-0.40783 0.61385,-0.51851 0.24312,-0.11534 0.51503,-0.1727 0.81783,-0.1727 z m -8.70094,0.0903 h 1.42658 c 0.38784,0 0.6983,0.0754 0.92851,0.22465 0.23472,0.14518 0.40434,0.35291 0.51083,0.62167 0.10648,0.26856 0.15972,0.5808 0.15972,0.93901 0,0.31998 -0.0585,0.61279 -0.17817,0.87707 -0.11998,0.26456 -0.29996,0.47421 -0.53917,0.63194 -0.23861,0.15323 -0.53692,0.22965 -0.89507,0.22965 h -1.41353 z m -5.95891,0.6217 1.26926,4.2331 h -2.53837 z" /><path
       id="path55-3-6-4-5-4-2-8-3-0-9-9-4-5-3-9-2-6-0-1"
       style="font-weight:900;font-size:3.88056px;line-height:1;font-family:'Roboto Condensed';-inkscape-font-specification:'Roboto Condensed,  Heavy';text-align:center;letter-spacing:0px;text-anchor:middle;fill:#ffffff;fill-opacity:1;stroke-width:1.32075;stroke-linecap:round;stroke-linejoin:round"
       d="m 630.63019,298.84531 c -0.75034,0 -1.43139,0.14022 -2.04299,0.41779 -0.60546,0.27755 -1.12154,0.68015 -1.55032,1.20982 -0.42234,0.52969 -0.74974,1.17283 -0.9828,1.92955 -0.22722,0.75665 -0.34045,1.61195 -0.34045,2.56412 v 1.91922 c 0,0.95848 0.10648,1.81512 0.3199,2.57183 0.21417,0.75037 0.53482,1.3921 0.95701,1.92181 0.42233,0.52957 0.94275,0.93226 1.56066,1.20979 0.36145,0.16223 0.75259,0.27556 1.17627,0.34294 0.0345,0.005 0.40479,0.0838 0.40479,0.59592 0,0.17024 -0.015,0.3105 -0.057,0.41783 -0.03,0.10738 -0.14398,0.19717 -0.25001,0.23711 -0.081,0.03 -0.56002,0.075 -0.67325,0.075 l 0.057,1.75928 c 0.51082,0 1.45688,-0.0568 1.84187,-0.17022 0.39085,-0.10739 0.71645,-0.26407 0.97501,-0.47224 0.26516,-0.20815 0.45923,-0.45825 0.58566,-0.74807 0.13198,-0.28352 0.19872,-0.60152 0.19872,-0.95443 0,-0.39934 -0.063,-0.71837 -0.19377,-0.95703 0.22767,-0.0754 0.44483,-0.16322 0.6527,-0.26806 0.73774,-0.3719 1.30946,-0.92059 1.71275,-1.64575 0.41033,-0.73145 0.61115,-1.61515 0.6062,-2.64926 h -3.23471 c 0.03,0.60546 -0.0195,1.07274 -0.15238,1.4007 -0.13198,0.32149 -0.32695,0.5444 -0.58551,0.67071 -0.25856,0.11984 -0.57051,0.1807 -0.93631,0.1807 -0.34705,0 -0.63065,-0.0609 -0.85127,-0.1807 -0.21417,-0.11983 -0.38439,-0.31448 -0.51083,-0.58555 -0.11998,-0.27754 -0.20021,-0.64086 -0.24506,-1.08861 -0.045,-0.44776 -0.0675,-1.0017 -0.0675,-1.66382 v -1.93987 c 0,-0.64948 0.03,-1.19798 0.0855,-1.64575 0.057,-0.44776 0.14698,-0.80723 0.27356,-1.07828 0.12598,-0.27755 0.29201,-0.47622 0.50047,-0.59586 0.20802,-0.11983 0.46314,-0.18071 0.76609,-0.18071 0.44123,0 0.79518,0.0738 1.06019,0.21913 0.27101,0.13888 0.46028,0.38038 0.56752,0.72742 0.10348,0.34044 0.14397,0.81197 0.11248,1.41102 h 3.23486 c -0.0255,-1.03414 -0.23366,-1.92178 -0.62435,-2.65953 -0.39084,-0.74407 -0.95296,-1.31165 -1.6844,-1.70252 -0.72514,-0.39733 -1.61436,-0.59592 -2.66735,-0.59592 z m 22.82417,0.009 c -0.76293,0 -1.45733,0.12823 -2.08168,0.38686 -0.62421,0.25858 -1.16368,0.6409 -1.61736,1.14534 -0.44783,0.50446 -0.79353,1.13419 -1.03949,1.89084 -0.24612,0.75671 -0.36895,1.63088 -0.36895,2.62084 v 2.08173 c 0,0.99003 0.12298,1.86016 0.36895,2.61054 0.24596,0.75037 0.59601,1.38008 1.04984,1.89083 0.45368,0.50443 0.99315,0.8868 1.61736,1.14537 0.6242,0.25209 1.3162,0.3764 2.07913,0.3764 0.75679,0 1.44579,-0.12433 2.06369,-0.3764 0.62421,-0.25857 1.16368,-0.64094 1.61736,-1.14537 0.45383,-0.51075 0.80388,-1.14046 1.04999,-1.89083 0.24612,-0.75038 0.3688,-1.62051 0.3688,-2.61054 v -2.08173 c 0,-0.98996 -0.12748,-1.86413 -0.37929,-2.62084 -0.24612,-0.75665 -0.59182,-1.38638 -1.03965,-1.89084 -0.44768,-0.50444 -0.98685,-0.88676 -1.61736,-1.14534 -0.6242,-0.25856 -1.3147,-0.38686 -2.07149,-0.38686 z m -35.63945,0.1882 -4.24616,13.77245 h 3.47993 l 0.60621,-2.57183 h 3.35604 l 0.60621,2.57183 h 3.47978 l -4.25621,-13.77245 h -0.85127 -1.3621 z m 22.61511,0 -4.24586,13.77245 h 3.47977 l 0.60621,-2.57183 h 3.35605 l 0.60621,2.57183 h 3.47978 l -4.25621,-13.77245 h -0.85128 z m 13.02434,2.41194 c 0.30911,0 0.57772,0.0643 0.80493,0.19068 0.22707,0.12628 0.41634,0.32497 0.56752,0.59588 0.15133,0.27105 0.26501,0.62237 0.34045,1.05767 0.0735,0.43528 0.11098,0.9633 0.11098,1.58124 v 2.09982 c 0,0.61164 -0.0345,1.13308 -0.11098,1.56836 -0.075,0.42882 -0.18927,0.78267 -0.34045,1.06022 -0.14548,0.27755 -0.33445,0.48171 -0.56752,0.61395 -0.22721,0.12628 -0.49222,0.1907 -0.79458,0.1907 -0.3154,0 -0.58971,-0.0643 -0.82292,-0.1907 -0.23307,-0.13228 -0.42669,-0.33645 -0.57772,-0.61395 -0.14547,-0.27755 -0.25316,-0.6314 -0.32245,-1.06022 -0.069,-0.43528 -0.10348,-0.95672 -0.10348,-1.56836 v -2.09982 c 0,-0.61794 0.0345,-1.14596 0.10348,-1.58124 0.069,-0.4353 0.17713,-0.78662 0.32245,-1.05767 0.15133,-0.27106 0.34045,-0.46973 0.56752,-0.59588 0.22706,-0.12628 0.50137,-0.19068 0.82277,-0.19068 z m -34.12018,1.66899 1.07309,4.55554 h -2.14872 z m 22.61526,0 1.07309,4.55554 h -2.14873 z" /><path
       style="fill:none;fill-opacity:1;stroke:#ffffff;stroke-width:1.87617;stroke-linecap:butt;stroke-linejoin:miter;stroke-miterlimit:4;stroke-dasharray:none;stroke-dashoffset:0;stroke-opacity:1"
       d="m 635.01077,294.49601 1.49757,10e-6 1.85751,1.07243 1.79879,-2.56864 2.99374,2.99374 2.09244,-2.98792 1.49279,1.49279 h 2.1389"
       id="path58-0-5-2-2-2" /><path
       style="fill:none;fill-opacity:1;stroke:#ffffff;stroke-width:1.91427;stroke-linecap:butt;stroke-linejoin:miter;stroke-miterlimit:4;stroke-dasharray:none;stroke-dashoffset:0;stroke-opacity:1"
       d="m 650.75868,294.49832 h 7.81511"
       id="path67-4-3-1" /><path
       style="fill:none;fill-opacity:1;stroke:#ffffff;stroke-width:1.8615;stroke-linecap:butt;stroke-linejoin:miter;stroke-miterlimit:4;stroke-dasharray:none;stroke-dashoffset:0;stroke-opacity:1"
       d="m 613.5704,294.49601 h 19.56419"
       id="path67-40-4" /></g></svg>
