<?xml version="1.0" encoding="UTF-8" standalone="no"?>
<svg
   width="70.108185"
   height="33.823483"
   viewBox="0 0 70.108185 33.823483"
   fill="none"
   version="1.1"
   id="svg25"
   sodipodi:docname="gdg_faro_logo_dark.svg"
   inkscape:version="1.4 (e7c3feb100, 2024-10-09)"
   xmlns:inkscape="http://www.inkscape.org/namespaces/inkscape"
   xmlns:sodipodi="http://sodipodi.sourceforge.net/DTD/sodipodi-0.dtd"
   xmlns="http://www.w3.org/2000/svg"
   xmlns:svg="http://www.w3.org/2000/svg">
  <defs
     id="defs25" />
  <sodipodi:namedview
     id="namedview25"
     pagecolor="#ffffff"
     bordercolor="#000000"
     borderopacity="0.25"
     inkscape:showpageshadow="2"
     inkscape:pageopacity="0.0"
     inkscape:pagecheckerboard="0"
     inkscape:deskcolor="#d1d1d1"
     inkscape:zoom="2.7816327"
     inkscape:cx="85.02201"
     inkscape:cy="37.927366"
     inkscape:window-width="1920"
     inkscape:window-height="1006"
     inkscape:window-x="0"
     inkscape:window-y="0"
     inkscape:window-maximized="1"
     inkscape:current-layer="svg25" />
  <path
     d="m 16.900324,17.054282 11.3847,-6.6154 c 2.6154,-1.5384999 3.5384,-4.9231099 2,-7.6923399 -1.5385,-2.61538002 -4.9231,-3.53846602 -7.6923,-2.00001002 L 2.9003942,12.131182 Z"
     fill="#ea4335"
     id="path22" />
  <path
     d="m 25.361924,33.823482 c 2,0 3.8462,-1.0769 4.7692,-2.7693 1.5385,-2.6153 0.6154,-6.1538 -2,-7.6923 L 8.4388342,11.977282 c -2.61538,-1.5384 -6.15384,-0.6154 -7.6923,2 -1.538466,2.6154 -0.615361,6.1539 2.00002,7.6923 l 19.6922698,11.3846 c 1.0769,0.6154 2,0.7693 2.9231,0.7693 z"
     fill="#4285f4"
     id="path23" />
  <path
     d="m 44.900024,33.823482 c 0.9231,0 1.8462,-0.3077 2.7692,-0.7693 l 19.6924,-11.3846 -13.6923,-5.0769 -11.5385,6.6154 c -2.6154,1.5385 -3.5385,4.9231 -2,7.6923 1.0769,2 2.9231,2.9231 4.7692,2.9231 z"
     fill="#fbbc04"
     id="path24" />
  <path
     d="m 64.592424,22.592682 c 2,0 3.8461,-1.0769 4.7692,-2.7692 1.5385,-2.6154 0.6154,-6.1539 -2,-7.6923 L 47.669324,0.74654208 c -2.6154,-1.538467 -6.1539,-0.61538 -7.6923,2.00000002 -1.5385,2.61538 -0.6154,6.15384 2,7.6923399 l 19.6923,11.3846 c 0.9231,0.4615 2,0.7692 2.9231,0.7692 z"
     fill="#0f9d58"
     id="path25" />
</svg>
