<?xml version="1.0" encoding="UTF-8"?>
<!-- Generator: Adobe Illustrator 23.0.1, SVG Export Plug-In . SVG Version: 6.00 Build 0)  -->
<svg version="1.1" id="Layer_1" xmlns="http://www.w3.org/2000/svg" xmlns:xlink="http://www.w3.org/1999/xlink" x="0px" y="0px" viewBox="0 0 190.3 84.7" style="enable-background:new 0 0 190.3 84.7;" xml:space="preserve">
<style type="text/css">
	.st0{fill:#FFFFFF;}
	.st1{fill:#9D9EA0;}
	.st2{fill:#E3E4E5;}
</style>
<g id="logo_white" transform="translate(-0.013)">
	<path id="Path_2" class="st0" d="M99.6,14.4c0.3,0.1,0.6,0.1,0.9,0.1H111c0.2,0,0.3,0.1,0.3,0.3v5.8c0,0.6,0,0.6-0.6,0.6H98.3   c-0.6,0-0.6,0-0.6,0.6v6.3c0,0.2,0.1,0.3,0.3,0.2c0.6,0,1.1,0,1.7,0c0.3,0,0.5,0,0.8,0h11.4c0.6,0,0.6,0,0.6,0.6v5.6   c0,0.7,0,0.7-0.7,0.7H91.7c-0.9,0-0.8,0.1-0.8-0.8v-3.4c0-0.2,0-0.5-0.1-0.7c0.1-0.5,0.1-1.1,0-1.6c0.1-0.2,0.1-0.3-0.1-0.3   c-0.2,0-0.4,0-0.7,0H76.7c-0.6,0-0.6,0-0.6-0.6v-5.7c0-0.7,0-0.6,0.7-0.6H90c1,0,0.9,0.2,0.9-0.9v-4.3c0-0.1,0-0.2-0.1-0.4   c0.1-0.5,0-1.1,0-1.6c0.1-0.2,0.1-0.4-0.2-0.4c-0.2,0-0.4,0-0.7,0H76.4C76.1,14,76,14,76,13.7v-6c0-0.3,0.1-0.4,0.4-0.4h14   c0.2,0,0.3-0.1,0.3-0.3V1c0-0.6,0-0.6,0.6-0.6h20.4c0.6,0,0.6,0,0.6,0.6v5.5c0,0.7,0,0.7-0.7,0.7H98.4c-0.9,0-0.8-0.1-0.8,0.8v5.6   c0,0.2,0,0.4,0,0.6c0,0.2,0.2,0.1,0.3,0.1C98.5,14.5,99.1,14.5,99.6,14.4z"/>
	<path id="Path_3" class="st0" d="M157,60V41.9c0-1-0.1-0.9,0.9-0.9h5.2c0.8,0,0.7-0.1,0.7,0.8v32.4c0,0.2,0,0.3,0,0.5   c0.1,0.4-0.1,0.5-0.5,0.5c-1.8,0-3.6,0-5.4,0c-0.3,0-0.7-0.2-0.8-0.5l-4.8-8.2c-1.7-2.9-3.4-5.9-5.1-8.8c-0.1-0.1-0.1-0.2-0.2-0.3   c-0.4-0.8-0.8-1.6-1.3-2.4c-0.1-0.2-0.2-0.5-0.4-0.6c0-0.4-0.2-0.7-0.4-1c-0.1,0.3-0.1,0.7,0,1c0,2.8,0,5.6,0,8.4v12.1   c0,0.3-0.1,0.3-0.4,0.3h-5.7c-0.7,0-0.7,0.1-0.7-0.7V41.9c0-0.9-0.1-0.8,0.8-0.8h5.2c0.4,0,0.8,0.2,0.9,0.5c0.3,0.6,0.6,1.1,1,1.6   c0,0.2,0.1,0.4,0.3,0.6c2.6,4.4,5.2,8.8,7.8,13.3c0.9,1.6,1.8,3.2,2.5,4.9c0.1,0.1,0.1,0.3,0.3,0.3C157,61.5,157,60.7,157,60z"/>
	<path id="Path_4" class="st0" d="M126,19.1c0-0.2-0.2-0.5-0.3-0.6c-0.1,0.2-0.1,0.5-0.1,0.8v15.4c0,0.6,0.1,0.6-0.6,0.6h-6.8   c-0.8,0-0.7,0-0.7-0.7V0.9c0-0.2,0.1-0.3,0.3-0.3h7.2c0.9,0,0.7,0,0.7,0.7V16c0.4-0.1,0.3-0.4,0.4-0.6c0.6-0.8,1.2-1.7,1.7-2.6   l6-9.8c0.4-0.7,0.8-1.4,1.3-2.1c0.1-0.2,0.3-0.4,0.6-0.4h8.6c-0.1,0.3-0.2,0.5-0.3,0.7c-3.2,5.1-6.4,10.3-9.5,15.4   c-0.2,0.2-0.5,0.5-0.2,0.8c0.1,0.3,0.2,0.5,0.4,0.7c3.3,5.7,6.7,11.4,10,17c-0.2,0-0.5,0-0.7,0H136c-0.5,0-0.9-0.2-1.1-0.6   c-2.2-4-4.5-8-6.8-12.1c-0.1-0.2-0.3-0.5-0.4-0.7C127.1,21,126.6,20,126,19.1z"/>
	<path id="Path_5" class="st0" d="M113.7,73.8c-2.5-1.9-4.3-4.6-5.1-7.6c-1.6-5.4-1.5-11.1,0.1-16.5c0.7-2.4,2-4.5,3.8-6.2   c1.9-1.7,4.3-2.7,6.8-2.9c1.8-0.2,3.6,0,5.4,0.4c2.1,0.6,4,1.8,5.4,3.5c0.3,0.3,0.6,0.6,0.8,0.9c0.2,0.7,0.7,1.2,1,1.8   c0.1,0.2,0.1,0.4,0.3,0.4c0,0.2,0.1,0.5,0.2,0.7c0.7,1.7,1.1,3.4,1.4,5.2c0.4,3,0.4,6.1,0,9.1c-0.3,2.2-0.9,4.4-1.9,6.4   c-1.4,2.9-3.9,5.2-7,6.2c-2.5,0.8-5.2,0.8-7.8,0.1c-0.8-0.2-1.4-0.6-2.2-0.8C114.6,74.2,114.2,74,113.7,73.8z M123,48.2   c-0.4-0.3-0.8-0.5-1.3-0.6c-1.7-0.4-3.4,0.4-4.3,1.8c-0.6,1-1.1,2.1-1.3,3.3c-0.7,3.4-0.7,6.8-0.1,10.2c0.1,1,0.5,2,1,3   c0.3,1,1,1.8,1.9,2.2c0.7,0.5,1.5,0.7,2.4,0.6c1.4-0.2,2.6-1,3.2-2.2c0.7-1.2,1.1-2.6,1.3-3.9c0.4-2.7,0.4-5.4,0.1-8.1   c-0.1-1.4-0.5-2.7-1-3.9c-0.1-0.3-0.3-0.6-0.6-0.8C124.1,49.1,123.6,48.5,123,48.2L123,48.2z"/>
	<path id="Path_6" class="st0" d="M61.7,20.7c0-0.3-0.2-0.2-0.4-0.2h-3.4c-0.3,0-0.4-0.1-0.4-0.4v-4.9c0-0.8-0.1-0.8,0.7-0.8h10.6   c0.5,0,0.5,0,0.5,0.5v18.6c0,0.3-0.2,0.7-0.5,0.8c-1.5,0.6-3.2,1.1-4.8,1.3c-1.6,0.3-3.3,0.4-4.9,0.3c-2.1,0-4.2-0.5-6.2-1.2   c-0.1,0-0.2-0.1-0.3-0.1h0c-0.1-0.1-0.2-0.2-0.3-0.2c-0.7-0.4-1.4-0.8-2.1-1.1c-3.9-3-5.8-7-6.5-11.8c-0.5-3.5-0.3-7,0.8-10.4   c1.3-4.6,4.7-8.2,9.1-9.9C55.7,0.4,57.9,0,60.1,0c2.6,0,5.1,0.4,7.5,1.2c0.5,0.2,1.1,0.3,1.3,0.7c0.2,0.4-0.2,0.9-0.4,1.3   c-0.6,1.4-1.1,2.9-1.7,4.3c-0.1,0.2-0.2,0.5-0.3,0.7C64,7,61.1,6.6,58.3,7.2c-2.6,0.6-4.7,2.4-5.7,4.9c-0.5,1.2-0.8,2.6-0.9,3.9   c-0.3,2.6,0,5.3,0.8,7.8c0.1,0.4,0.3,0.8,0.6,1.2v0c0,0.1,0,0.3,0.2,0.3v0c0,0.2,0.1,0.3,0.2,0.4c0.5,0.9,1.2,1.7,2,2.2   c0.9,0.8,2.1,1.3,3.3,1.2c0.8,0,1.5,0,2.2-0.2c0.6-0.1,0.6-0.1,0.6-0.7v-5.6C61.7,21.9,61.7,21.3,61.7,20.7z"/>
	<path id="Path_7" class="st0" d="M33.2,68.5c2.1,0,4.3,0,6.4,0h5.6c0.5,0,0.5,0,0.5,0.5v5.6c0,0.7,0,0.6-0.6,0.6h-20   c-0.6,0-0.6,0-0.6-0.6v-33c0-0.6,0-0.6,0.6-0.6H45c0.7,0,0.7-0.1,0.7,0.7V47c0,0.8,0,0.7-0.7,0.7H31.9c-0.9,0-0.8-0.1-0.8,0.8v5.6   c0,0.2,0,0.3,0,0.5c0,0.2,0.2,0.2,0.4,0.1c0.6,0.1,1.1,0.1,1.7,0c3.4,0,6.9,0,10.3,0c1,0,1,0,1,1v5c0,0.7,0.1,0.6-0.6,0.6H32.1   c-1,0-0.9-0.1-0.9,0.9v5.6c0,0.2-0.2,0.5,0.3,0.6C32,68.5,32.6,68.5,33.2,68.5z"/>
	<path id="Path_8" class="st0" d="M10.5,53.4c0.4,0.4,0.9,0.6,1.3,0.9c1.3,0.7,2.5,1.3,3.7,2c1.5,0.9,2.9,2.1,3.9,3.6   c0.2,0.5,0.4,0.9,0.7,1.3c0.1,0.1,0,0.3,0.2,0.3v0c0.1,0.6,0.2,1.1,0.4,1.7c0.4,2.5,0,5-1.1,7.3c-1.4,2.6-3.9,4.4-6.8,5   c-2.2,0.5-4.4,0.5-6.6,0.2c-1.8-0.2-3.5-0.6-5.2-1.2c-0.1,0-0.2-0.1-0.3-0.1c-0.8-0.3-0.8-0.4-0.5-1.2c0.4-1.1,0.9-2.3,1.3-3.4   c0.3-0.8,0.6-1.6,0.9-2.4C2.5,67.1,2.6,67,3,67.2c1.3,0.7,2.6,1.1,4,1.3c1.1,0.2,2.2,0.2,3.3-0.1c1.4-0.3,2.4-1.7,2.3-3.1   c0-0.3-0.1-0.7-0.3-0.9c-0.2-0.6-0.6-1.1-1.2-1.5c-0.6-0.4-1.2-0.8-1.9-1.1c-1.5-0.7-3-1.5-4.3-2.4c-0.1,0-0.1,0-0.2-0.1   c-0.6-0.5-1.1-0.9-1.6-1.5c-1.6-1.7-2.6-3.9-2.6-6.3c-0.1-2.1,0.3-4.2,1.3-6c0.6-1.2,1.5-2.2,2.6-3c1.3-0.9,2.8-1.5,4.3-1.7   c3.4-0.6,6.9-0.3,10.2,1c1.2,0.5,1.2,0.5,0.7,1.7c-0.7,1.7-1.3,3.5-2,5.2c-0.1,0-0.2,0-0.3,0h-0.1c-0.1-0.2-0.2-0.2-0.3-0.2h0   c-0.1-0.2-0.3-0.2-0.5-0.2h0c-1.7-0.9-3.7-1.2-5.6-0.9c-0.6,0.1-1.1,0.4-1.5,0.8c-1,1-1.2,2.5-0.4,3.6C9.4,52.6,9.9,53.1,10.5,53.4   z"/>
	<path id="Path_9" class="st0" d="M59,53.4c0.3,0.3,0.7,0.6,1.1,0.7c1,0.6,2.1,1.1,3,1.6c1,0.5,1.9,1.2,2.8,1.9   c2.1,1.7,3.4,4.2,3.5,6.9c0.1,1.6-0.2,3.1-0.7,4.6c-1.1,3.1-3.7,5.3-6.9,6.1c-1.6,0.4-3.2,0.6-4.9,0.6c-2.3-0.1-4.6-0.4-6.8-1.1   c-0.4-0.2-0.9-0.3-1.3-0.5c-0.4-0.1-0.4-0.3-0.3-0.7c0.6-1.5,1.1-3,1.7-4.5c0.2-0.6,0.4-1.1,0.6-1.7c0.1-0.3,0.2-0.3,0.5-0.2   c1.3,0.7,2.6,1.1,4,1.3c1.1,0.2,2.3,0.2,3.4-0.1c1.4-0.4,2.4-1.7,2.2-3.2c0-0.4-0.2-0.8-0.4-1.1c0-0.3-0.2-0.5-0.4-0.7   c-0.8-0.8-1.7-1.4-2.7-1.8c-1.3-0.6-2.5-1.2-3.6-1.9c-0.1-0.1-0.2-0.2-0.3-0.1c-0.5-0.4-0.9-0.8-1.4-1.2c-2.5-2.2-3.7-5.4-3.2-8.7   c0.1-1.4,0.5-2.7,1.1-3.9c1-1.9,2.6-3.4,4.5-4.2c1.5-0.6,3.1-0.9,4.8-1c2.7-0.2,5.4,0.3,7.9,1.3c1.2,0.5,1.2,0.5,0.7,1.7   c-0.6,1.6-1.2,3.2-1.8,4.7c-0.1,0.2-0.2,0.3-0.2,0.6c-0.9-0.4-1.8-0.8-2.7-1c-1.3-0.4-2.6-0.5-3.9-0.2c-1.6,0.3-2.7,1.9-2.4,3.5   c0,0.2,0.1,0.4,0.2,0.6c0.1,0.1,0.2,0.3,0.3,0.4C57.8,52.6,58.4,53.1,59,53.4z"/>
	<path id="Path_10" class="st0" d="M172.3,59.4c-0.6-0.5-1.2-1-1.7-1.6c-1.4-1.4-2.4-3.2-2.6-5.2c-0.3-1.9-0.1-3.9,0.6-5.7   c1.1-2.9,3.5-5.1,6.5-5.8c1.4-0.4,2.9-0.6,4.4-0.6c2.2,0,4.3,0.4,6.3,1.1c0.3,0.1,0.6,0.2,0.8,0.3c0.9,0.4,0.9,0.4,0.5,1.3   c-0.6,1.6-1.3,3.2-1.9,4.9c-0.1,0.2-0.2,0.5-0.3,0.7c-0.3-0.1-0.5-0.3-0.8-0.3c-0.1,0-0.2,0-0.3,0h0c-0.1-0.2-0.3-0.2-0.5-0.2h0   c-0.2-0.4-0.6-0.3-0.9-0.4c-1-0.4-2.1-0.5-3.2-0.5c-0.7,0-1.4,0.2-2.1,0.6c-1.3,0.8-1.7,2.5-0.9,3.8c0.8,0.9,1.7,1.7,2.7,2.3   c1,0.6,2.1,1.1,3,1.6c1.8,0.9,3.4,2.2,4.7,3.8c0.6,1,1,2,1.4,3.1c0.7,3.7,0.1,7-2.5,9.9c-1.6,1.7-3.7,2.7-6,3.1   c-3.8,0.6-7.7,0.2-11.3-1.2c-0.9-0.3-0.9-0.4-0.6-1.3c0.7-1.9,1.4-3.7,2.1-5.6l0.2-0.5c0.2-0.1,0.4,0.1,0.6,0.2   c1.8,0.9,3.8,1.3,5.8,1.3c0.9,0,1.7-0.2,2.4-0.7c1-0.7,1.5-1.9,1.2-3.1c0-0.2-0.2-0.5-0.3-0.6c0-0.3-0.2-0.5-0.4-0.7   c-0.6-0.7-1.4-1.2-2.2-1.6c-1.5-0.7-3-1.5-4.4-2.4C172.6,59.4,172.4,59.4,172.3,59.4z"/>
	<path id="Path_11" class="st0" d="M91.3,61.7c0.3,1.2,0.5,2.5,0.5,3.8c0,3.1-1.5,6-3.9,7.9c-1.7,1.2-3.6,2-5.7,2.1   c-3.4,0.4-6.8,0-10-1.1c-0.3-0.1-0.6-0.2-0.9-0.3c-0.4-0.1-0.4-0.3-0.3-0.7c0.6-1.5,1.1-3,1.7-4.5c0.2-0.6,0.5-1.3,0.7-1.9   c0.2-0.1,0.4,0.1,0.6,0.2c1.8,0.9,3.8,1.3,5.8,1.3c0.8,0,1.6-0.2,2.2-0.6c1.1-0.6,1.7-1.9,1.4-3.2c-0.1-0.3-0.2-0.6-0.4-0.8   c0-0.3-0.2-0.4-0.4-0.6c-0.5-0.6-1.2-1.1-1.9-1.4c-1.7-0.9-3.3-1.6-4.9-2.6c0,0-0.1,0-0.2,0c-0.9-0.7-1.7-1.4-2.4-2.3   c-1.5-1.9-2.3-4.3-2.1-6.8c0-1.1,0.2-2.1,0.6-3.2c1-3.2,3.7-5.6,7-6.2c3.7-0.9,7.7-0.5,11.2,1c0.2,0.1,0.3,0.2,0.5,0.2   c0.2,0.1,0.3,0.2,0.2,0.5c-0.7,1.9-1.5,3.8-2.2,5.8c-0.1,0.2-0.2,0.3-0.5,0.2h0c-1.7-0.9-3.5-1.4-5.4-1.3c-0.6,0-1.1,0.1-1.6,0.4   c-1.3,0.6-2,2-1.7,3.4c0.1,0.2,0,0.6,0.3,0.7v0c0,0.2,0.1,0.2,0.2,0.3c0.3,0.6,0.9,1,1.5,1.3c0.4,0.4,0.8,0.7,1.3,0.9   c1.1,0.6,2.2,1.2,3.3,1.8c1.8,1,3.3,2.3,4.5,4c0.1,0.5,0.4,0.9,0.6,1.3C91.2,61.5,91.2,61.7,91.3,61.7L91.3,61.7z"/>
	<path id="Path_12" class="st0" d="M95.5,58.2V41.9c0-1-0.1-0.9,0.9-0.9h6.5c0.6,0,0.6,0,0.6,0.6v32.7c0,1,0.1,0.9-0.8,0.9h-6.5   c-0.6,0-0.6,0-0.6-0.6C95.5,69.1,95.5,63.6,95.5,58.2L95.5,58.2z"/>
	<path id="Path_13" class="st0" d="M171.9,35.3h-14.8c-0.9,0-0.8,0.1-0.8-0.8v-4c0-0.4,0.1-0.5,0.5-0.5c0.5,0,1,0,1.5,0h28.3   c1,0,0.9-0.2,0.9,0.9v3.6c0,0.9,0,0.8-0.7,0.8L171.9,35.3z"/>
	<path id="Path_14" class="st0" d="M16,35.3H0.8c-0.3,0-0.4-0.1-0.4-0.4v-4.3c0-0.5,0-0.6,0.5-0.6h30.1c0.6,0,0.6,0,0.6,0.6v4   c0,0.7,0,0.6-0.6,0.6H16z"/>
	<path id="Path_15" class="st0" d="M93.9,81.4H0.7c-0.2,0-0.3-0.1-0.3-0.3c0-0.2,0.1-0.3,0.3-0.3h186.5c0.2,0,0.3,0.2,0.3,0.3   s0,0.3-0.3,0.3H93.9z"/>
	<path id="Path_16" class="st1" d="M94,84.7H0.9c-0.3,0-0.5-0.1-0.5-0.4c0-0.3,0.2-0.4,0.5-0.3h0.5c35,0,70,0,105,0   c26.1,0,52.3,0,78.4,0h2.1c0.2,0,0.3,0,0.5,0c0.2,0,0.2,0.2,0.3,0.4c0,0.2-0.1,0.3-0.3,0.3h-0.7c-26.5,0-53,0-79.5,0H94z"/>
	<path id="Path_17" class="st1" d="M113.7,73.8c0.4,0.2,0.9,0.4,1.2,0.7c0.4,0.3,0.8,0.5,1.3,0.7c2.5,1,5.2,1.2,7.8,0.6   c2.8-0.5,5.3-2.1,7-4.4c1.3-1.8,2.2-3.8,2.7-6c0.8-3.2,1-6.5,0.7-9.8c-0.1-2.1-0.5-4.1-1.3-6.1c-0.2-0.7-0.5-1.3-0.9-1.9   c-0.2,0-0.2-0.3-0.3-0.4c-0.3-0.6-0.8-1.2-1-1.8c0.4,0.2,0.7,0.4,0.9,0.8c1.7,1.9,2.9,4.2,3.4,6.7c0.8,3.4,1,6.9,0.7,10.3   c-0.2,2-0.6,4-1.3,5.9c-0.8,2.5-2.4,4.8-4.5,6.4c-1.6,1.1-3.4,1.8-5.3,2.1c-1.6,0.2-3.2,0.2-4.8-0.1c-0.6-0.1-1.2-0.3-1.8-0.5   c-0.6-0.2-1.2-0.5-1.8-0.8c-1-0.6-1.8-1.3-2.5-2.2C113.8,74,113.7,73.9,113.7,73.8z"/>
	<path id="Path_18" class="st1" d="M144.4,35.3c-3.3-5.7-6.7-11.4-10-17c-0.2-0.2-0.3-0.4-0.4-0.7c0.4,0.1,0.4-0.3,0.6-0.5   c1-1.7,2.1-3.3,3.1-5c1.8-3,3.7-5.9,5.5-8.9c0.2-0.4,0.6-0.7,1.1-0.6c0.6,0.1,1.2,0,1.7,0.1c0.1,0.3-0.1,0.5-0.2,0.7   c-2.8,4.6-5.7,9.2-8.5,13.7c-0.4,0.6-0.7,1.2-1.1,1.7c-0.2,0.3-0.2,0.8,0,1.1l3.6,6.1c2.1,3.6,4.2,7.2,6.3,10.8   c0.1,0.2,0.3,0.3,0.2,0.6c-0.2,0.1-0.5,0.1-0.7,0.1c-2.5,0-5,0-7.6,0c-0.5,0.1-1-0.2-1.2-0.7c-0.1-0.3-0.3-0.6-0.5-0.9   c0.3-0.1,0.6-0.1,0.9-0.1h7.2c0.1,0,0.2,0,0.2-0.1C144.6,35.4,144.6,35.3,144.4,35.3C144.4,35.3,144.4,35.3,144.4,35.3z"/>
	<path id="Path_19" class="st1" d="M158.5,75.6h5c0.7,0,0.7,0,0.7-0.6c-0.1-1.4,0.1-2.9,0-4.3c0-0.6,0.1-1.2,0.1-1.8V44   c0-1,0-0.9,0.9-0.9h0.4c0.2,0,0.4,0.1,0.4,0.3c0,0,0,0.1,0,0.1v32.9c0,0.8,0,0.8-0.8,0.8c-1.7,0-3.3,0-4.9,0   c-0.5,0.1-0.9-0.2-1.1-0.6C158.9,76.3,158.7,76,158.5,75.6z"/>
	<path id="Path_20" class="st1" d="M105.5,60.1v16.2c0,0.9,0.1,0.9-0.9,0.9h-6.5c-0.7,0-0.7,0-0.7-0.7v-0.2c0-0.6,0-0.6,0.7-0.6h4.9   c0.9,0,0.9,0,0.9-0.8V43.7c0-0.6,0-0.6,0.6-0.6c1.1,0,1-0.1,1,0.9C105.5,49.4,105.5,54.8,105.5,60.1L105.5,60.1z"/>
	<path id="Path_21" class="st1" d="M55.5,27.8c-0.9-0.5-1.6-1.3-2-2.2c0.1-0.2,0-0.3-0.2-0.4v0c0-0.1,0-0.2-0.2-0.3v0   c0-0.2-0.1-0.5-0.2-0.7c-0.8-2.4-1.1-4.9-0.9-7.4c0.1-1.8,0.5-3.5,1.3-5.1c1.2-2.4,3.5-4,6.2-4.3c2.3-0.3,4.7,0,6.9,0.9   C67,8.5,67,8.5,67.2,8c0.6-1.4,1.1-2.9,1.7-4.3c0.3-0.7,0.3-0.7,1-0.4c1.2,0.5,1.2,0.5,0.8,1.7c-0.6,1.6-1.2,3.2-1.8,4.7   c-0.2,0.6-0.2,0.6-0.8,0.3c-2.4-1.1-5.1-1.4-7.7-0.8c-2.2,0.4-4.1,1.8-5.1,3.8c-0.8,1.5-1.4,3.3-1.5,5c-0.3,2.4-0.1,4.8,0.6,7   C54.6,26,55.1,26.9,55.5,27.8z"/>
	<path id="Path_22" class="st1" d="M50.2,33.3c0.7,0.3,1.4,0.7,2.1,1.1c0,0.3,0.2,0,0.3,0.2h0c0.2,0.3,0.5,0.4,0.7,0.5   c1.7,0.7,3.6,1.1,5.4,1.2c2.8,0.1,5.6-0.2,8.4-0.9c0.6-0.2,1.3-0.4,1.9-0.6c0.5-0.1,0.8-0.6,0.7-1c0-1.6,0-3.2,0-4.8V17   c0-0.6,0-0.6,0.7-0.6h0.2c0.7,0,0.7,0,0.7,0.7v18.3c0.1,0.4-0.2,0.8-0.6,0.9c-1.7,0.7-3.5,1.1-5.4,1.3c-1.5,0.2-3.1,0.2-4.6,0.2   c-1.6,0-3.1-0.2-4.6-0.7c-2.1-0.7-4.1-1.9-5.6-3.5C50.3,33.5,50.2,33.4,50.2,33.3z"/>
	<path id="Path_23" class="st1" d="M173.9,37.2h-15.1c-0.3,0-0.5-0.1-0.5-0.5v-0.1c-0.1-1.1-0.1-1.1,1-1.1H187c0.9,0,0.9,0,0.9-0.9   v-2.1c0-0.6,0-0.6,0.6-0.6c1.2,0,1-0.1,1,1v3.5c0,0.7,0,0.7-0.8,0.7c-2,0-4.1,0-6.1,0C179.7,37.2,176.8,37.2,173.9,37.2L173.9,37.2   z"/>
	<path id="Path_24" class="st1" d="M18.1,37.3H8c-1.6,0-3.2,0.1-4.8,0.1c-0.8,0-0.8,0-0.8-0.8v-0.4c0-0.3,0.2-0.5,0.5-0.5h0.8   c9.1,0,18.2,0,27.2,0c1.1,0,1,0.1,1-1v-2.1c0-0.3,0.1-0.6,0.5-0.6c1.4,0,1.2-0.1,1.2,1.2v3.3c0,0.7,0,0.7-0.7,0.7h-7.4   C23,37.2,20.5,37.2,18.1,37.3L18.1,37.3z"/>
	<path id="Path_25" class="st1" d="M20.2,61.2c-0.3-0.4-0.5-0.8-0.7-1.3c0.3,0,0.5,0.2,0.6,0.4c1.5,1.4,2.4,3.4,2.7,5.4   c0.3,2.5-0.2,5.1-1.5,7.3C20,75,18,76.5,15.7,77.1c-2.2,0.6-4.6,0.8-6.9,0.6c-1.5-0.1-3-0.4-4.4-0.8c-0.7-0.2-1.3-0.4-2-0.7   C2,76,2,75.9,2.1,75.5c0-0.2,0.2-0.3,0.4-0.3c0,0,0.1,0,0.1,0c1.2,0.4,2.4,0.6,3.6,0.7c2.9,0.5,5.9,0.2,8.7-0.8   c3.5-1.4,5.8-4.6,6.1-8.3c0.2-1.4,0.1-2.9-0.3-4.3c-0.1-0.4-0.2-0.7-0.5-1.1v0C20.4,61.3,20.3,61.2,20.2,61.2z"/>
	<path id="Path_26" class="st1" d="M188.1,62.6c-0.3-1.1-0.8-2.1-1.4-3.1c0.7,0.4,1.2,1,1.7,1.6c1.2,1.5,1.9,3.4,1.9,5.4   c0.1,1.5-0.1,3-0.6,4.5c-0.7,2-2,3.7-3.7,4.8c-1.8,1.2-3.8,1.8-5.9,1.9c-3.2,0.2-6.4-0.2-9.5-1.3c-0.2-0.1-0.4-0.2-0.6-0.2   c-0.2-0.1-0.6-0.2-0.4-0.6s0.2-0.5,0.7-0.3c2.5,0.7,5,1,7.6,0.9c2.6,0,5.1-0.9,7.1-2.4c1.9-1.5,3.2-3.7,3.6-6.1   c0.3-1.4,0.3-2.9,0-4.4C188.4,63,188.4,62.7,188.1,62.6z"/>
	<path id="Path_27" class="st1" d="M91.2,61.3c-0.3-0.4-0.5-0.8-0.6-1.3c0.3-0.1,0.4,0.2,0.6,0.3c1.7,1.6,2.6,3.8,2.7,6.1   c0.1,1.7-0.2,3.5-0.8,5.1c-1.1,2.8-3.5,4.9-6.4,5.7c-2.1,0.6-4.4,0.8-6.6,0.5c-1.5-0.1-3-0.4-4.5-0.8c-0.7-0.2-1.3-0.4-2-0.7   c-0.2-0.1-0.5-0.2-0.3-0.6c0.1-0.3,0.2-0.5,0.6-0.3c1.5,0.4,3.1,0.7,4.7,0.8c2.8,0.4,5.7-0.1,8.2-1.2c2.9-1.3,4.9-4,5.4-7.2   c0.3-1.7,0.3-3.4-0.2-5.1c-0.1-0.3-0.1-0.7-0.5-0.9h0C91.4,61.6,91.4,61.4,91.2,61.3z"/>
	<path id="Path_28" class="st1" d="M68.7,60.4c1,0.9,1.7,2,2.1,3.3c1,3,0.7,6.4-0.9,9.1c-1.3,2.3-3.6,4-6.2,4.5   c-2.1,0.5-4.2,0.6-6.3,0.4c-1.5-0.1-3-0.4-4.5-0.8c-0.7-0.2-1.3-0.4-2-0.7c-0.2-0.1-0.4-0.2-0.3-0.6c0.1-0.3,0.2-0.5,0.6-0.3   c1.1,0.3,2.2,0.5,3.3,0.7c2.6,0.4,5.2,0.3,7.8-0.3c4.1-1,7-4.5,7.4-8.7c0.2-1.7,0.1-3.4-0.5-5c-0.3-0.4-0.5-0.9-0.6-1.4   C68.6,60.5,68.6,60.4,68.7,60.4z"/>
	<path id="Path_29" class="st1" d="M103.6,37.3H93.4c-0.5,0-0.6,0-0.6-0.5c0-1.3-0.1-1.1,1.1-1.1h18c1,0,0.9,0,0.9-0.9v-3.7   c0-0.6,0-0.6,0.6-0.6c1.2,0,1-0.1,1,1v5.1c0,0.7,0,0.7-0.7,0.7L103.6,37.3z"/>
	<path id="Path_30" class="st1" d="M99.6,28.5c-0.6,0-1.1,0-1.7,0c0.1-0.4,0.1-0.8,0.1-1.2v-4.9c0-0.7,0-0.7,0.7-0.7h11.9   c1.1,0,1,0.1,1-1v-3.5c0-0.7,0-0.7,0.7-0.7c1.1,0,0.9-0.1,0.9,0.9v5.1c0,0.8,0,0.8-0.8,0.8h-11.8c-1,0-1-0.1-1,0.9L99.6,28.5z"/>
	<path id="Path_31" class="st1" d="M33.2,54.8c-0.6,0-1.1,0-1.7,0v-6.3c0-0.2,0.1-0.3,0.3-0.3c0,0,0,0,0,0h13.4c0.8,0,0.8,0,0.8-0.8   v-3.7c0-0.5,0-0.6,0.5-0.6c1.3,0,1.1-0.1,1.1,1.1V49c0,0.7,0,0.7-0.7,0.7H33.9c-0.7,0-0.7,0-0.7,0.7C33.2,51.9,33.1,53.4,33.2,54.8   z"/>
	<path id="Path_32" class="st1" d="M99.6,14.4c-0.5,0.1-1.1,0.1-1.6,0V8.1c0-0.2,0.1-0.4,0.4-0.4h13.9c0.6,0,0.6,0,0.6-0.6V3.2   c0-0.7,0-0.7,0.7-0.7c1,0,0.9-0.1,0.9,0.9v4.9c0,1,0.1,0.9-0.9,0.9h-12.4c-1.5,0-1.5,0-1.5,1.5C99.6,12,99.6,13.2,99.6,14.4z"/>
	<path id="Path_33" class="st1" d="M145.4,54.5c0.3,0.2,0.3,0.4,0.4,0.6c0.4,0.8,0.8,1.6,1.3,2.4c-0.2,0.2-0.1,0.4-0.1,0.6v18.5   c0,0.5,0,0.6-0.5,0.6h-5.7c-0.4,0-0.5-0.1-0.5-0.5c0-1.3-0.1-1.1,1.1-1.1h3.4c0.7,0,0.7,0,0.7-0.7v-6.8c0-4.3,0-8.7,0-13   C145.3,54.9,145.3,54.7,145.4,54.5z"/>
	<path id="Path_34" class="st1" d="M33.2,68.5h-1.8c0.1-0.9,0.1-1.7,0.1-2.6v-3.5c0-0.6,0-0.6,0.6-0.6h12c0.7,0,0.7,0,0.7-0.7v-3.7   c0-0.7,0-0.7,0.6-0.7c1.1,0,1-0.1,1,1v4.8c0,0.9,0,0.9-0.8,0.9H34.1c-1.1,0-1-0.1-1,1C33.2,65.8,33.2,67.2,33.2,68.5z"/>
	<path id="Path_35" class="st1" d="M37,77.2H26.9c-0.3,0-0.5-0.1-0.5-0.5c0-1.4-0.1-1.1,1-1.1h17.6c1,0,1,0.1,1-1v-3.5   c0-0.6,0-0.6,0.6-0.6h0.1c0.9,0,0.9,0,0.9,0.9v4.8c0,1,0.1,0.9-0.9,0.9C43.5,77.2,40.3,77.2,37,77.2L37,77.2z"/>
	<path id="Path_36" class="st1" d="M126,19.1c0.6,0.9,1.1,1.9,1.7,2.8c-0.2,0.2-0.1,0.6-0.1,0.8v13.7c0,0.9,0.1,0.9-0.9,0.9h-6.4   c-0.9,0-0.9,0-0.9-0.8s0-0.8,0.9-0.8h4.8c0.8,0,0.8,0,0.8-0.8V20C125.9,19.7,125.9,19.4,126,19.1z"/>
	<path id="Path_37" class="st1" d="M10.5,53.4c-0.7-0.3-1.2-0.8-1.6-1.4c0-0.1,0-0.2,0-0.3c-0.5-1.6,0.4-3.3,2.1-3.8   c0.3-0.1,0.5-0.1,0.8-0.1c1.3-0.1,2.6,0,3.8,0.4c0.3,0.1,0.6,0.2,0.9,0.2h0c0.1,0.2,0.3,0.2,0.5,0.2h0c0.1,0.1,0.2,0.1,0.3,0.2h0   c0.1,0.1,0.1,0.1,0.2,0c0.1,0,0.2,0,0.3,0c0,0.1,0,0.2,0.1,0.3c0.2,0.1,0.2,0,0.3-0.1c0.1-0.1,0.1-0.3,0.2-0.5l1.7-4.3   c0.2-0.6,0.2-0.6,0.8-0.4c1.4,0.5,1.4,0.5,0.9,1.9c-0.6,1.5-1.2,3-1.7,4.5c-0.2,0.6-0.2,0.6-0.8,0.4c-1.6-0.8-3.3-1.1-5.1-1.1   c-0.6,0-1.3,0.2-1.8,0.5c-1.1,0.6-1.7,1.9-1.5,3.2C10.5,53.1,10.5,53.3,10.5,53.4z"/>
	<path id="Path_38" class="st1" d="M177.9,53.4c-0.7-0.3-1.3-0.9-1.6-1.6c0-0.2,0-0.4,0-0.6c-0.2-1.7,1-3.2,2.7-3.4   c0.1,0,0.1,0,0.2,0c1.1-0.1,2.2,0,3.3,0.2c0.3,0.1,0.7,0.2,1.1,0.2h0c0.1,0.2,0.3,0.2,0.5,0.2h0c0.1,0.1,0.2,0.2,0.3,0   c0.3,0.1,0.5,0.2,0.8,0.3c0,0.2,0.1,0.3,0.2,0.3s0.2-0.2,0.3-0.3c0.6-1.4,1.1-2.8,1.6-4.2c0.5-1.2,0.2-1.2,1.5-0.6   c0.1,0,0.1,0.1,0.2,0.1c0.6,0.3,0.6,0.3,0.4,1c-0.7,1.7-1.3,3.5-2,5.2c-0.2,0.6-0.2,0.6-0.8,0.3c-1.6-0.8-3.4-1.2-5.3-1.1   c-0.5,0-1,0.1-1.5,0.3c-1.1,0.4-1.9,1.6-1.8,2.8C177.9,52.7,177.9,53,177.9,53.4z"/>
	<path id="Path_39" class="st1" d="M81.4,53.4c-0.6-0.3-1.1-0.7-1.5-1.3c-0.1-0.1,0-0.3-0.2-0.3v-0.4c-0.3-1.7,0.8-3.2,2.4-3.5   c0.2,0,0.4-0.1,0.6,0c1.5-0.1,3.1,0.1,4.5,0.7c0.3,0.1,0.5,0.2,0.8,0.2h0c0.6,0.5,0.6,0.5,0.9-0.2c0.6-1.5,1.1-3,1.7-4.4   c0.2-0.6,0.2-0.6,0.8-0.4c1.4,0.5,1.4,0.5,0.9,1.9c-0.6,1.5-1.2,3-1.7,4.5c-0.1,0.2-0.2,0.4-0.3,0.6c-0.5-0.2-1-0.4-1.5-0.6   c-1.3-0.5-2.7-0.7-4.1-0.7c-0.4,0-0.9,0.1-1.3,0.2c-1.4,0.4-2.3,1.7-2.2,3.1C81.4,52.9,81.4,53.1,81.4,53.4z"/>
	<path id="Path_40" class="st1" d="M59,53.4c-0.7-0.3-1.2-0.8-1.6-1.4c0-0.1,0-0.3,0-0.4c-0.4-1.6,0.6-3.3,2.2-3.7   c0.2-0.1,0.4-0.1,0.6-0.1c1.3-0.1,2.5,0,3.8,0.4c0.6,0.2,1.3,0.4,1.9,0.7c0.6,0.2,0.6,0.2,0.8-0.3c0.6-1.4,1.1-2.8,1.6-4.3   c0.3-0.8,0.3-0.8,1.1-0.5c1.1,0.5,1.1,0.5,0.7,1.6l-1.7,4.6c-0.2,0.7-0.5,0.8-1.1,0.4c-1.6-0.9-3.4-1.2-5.2-1   c-0.3,0-0.6,0.1-0.9,0.2c-1.5,0.5-2.3,2-2,3.5L59,53.4z"/>
	<path id="Path_41" class="st1" d="M90.8,28.9c0.1,0.5,0.1,1.1,0,1.6H78.7c-0.6,0-0.6,0-0.6-0.6v-0.3c0-0.6,0-0.6,0.6-0.6L90.8,28.9   z"/>
	<path id="Path_42" class="st1" d="M90.8,14.6c0.1,0.5,0.1,1.1,0,1.6H79c-1,0-1,0-1-1c0-0.6,0-0.6,0.6-0.6   C82.7,14.6,86.8,14.6,90.8,14.6z"/>
	<path id="Path_43" class="st1" d="M127.7,12.8c-0.5,0.9-1,1.8-1.7,2.6c-0.1-0.2-0.1-0.5-0.1-0.7V3.2c0-0.7,0-0.7,0.7-0.7h0.2   c0.6,0,0.6,0,0.6,0.7v8.9C127.6,12.3,127.4,12.6,127.7,12.8z"/>
	<path id="Path_44" class="st1" d="M157,60v2.2c-0.2,0-0.2-0.2-0.3-0.3c-0.7-1.7-1.6-3.3-2.5-4.9c-2.6-4.4-5.2-8.8-7.8-13.3   c-0.2-0.2-0.2-0.4-0.3-0.6c0.6-0.2,0.6-0.2,0.9,0.2c0.8,1.3,1.6,2.7,2.4,4.1c2.3,4,4.7,7.9,7,11.9C156.6,59.7,156.7,60,157,60z"/>
	<path id="Path_45" class="st1" d="M4.7,59.2c0.1,0,0.2,0,0.2,0.1c1.4,0.9,2.8,1.7,4.3,2.4c0.7,0.3,1.3,0.7,1.9,1.1   c0.5,0.4,0.9,0.9,1.2,1.5c-1.5-0.8-3.2-1.5-4.7-2.4c-0.9-0.6-1.8-1.2-2.5-2C4.9,59.7,4.7,59.5,4.7,59.2z"/>
	<path id="Path_46" class="st1" d="M172.3,59.4c0.1,0,0.1,0,0.2,0c1.4,0.9,2.9,1.7,4.4,2.4c0.8,0.4,1.6,0.9,2.2,1.6   c0.2,0.2,0.4,0.4,0.4,0.7c-0.7-0.2-1.4-0.6-2.1-0.9c-1.5-0.7-3-1.6-4.3-2.7C172.9,60.2,172.5,59.8,172.3,59.4z"/>
	<path id="Path_47" class="st1" d="M75.8,59.4c0.1,0,0.1,0,0.2,0c1.6,1,3.2,1.8,4.9,2.6c0.7,0.3,1.3,0.8,1.9,1.4   c0.2,0.2,0.4,0.3,0.4,0.6c-0.1,0-0.2,0-0.2,0c-2.1-0.9-4.1-2-5.9-3.4C76.5,60.3,76,60,75.8,59.4z"/>
	<path id="Path_48" class="st1" d="M53.6,59.5c0.1,0,0.2,0,0.3,0.1c1.2,0.7,2.4,1.4,3.6,1.9c1,0.4,1.9,1,2.7,1.8   c0.2,0.2,0.4,0.4,0.4,0.7c-0.8-0.3-1.5-0.6-2.3-1c-1.6-0.7-3-1.7-4.3-2.8C53.9,60.1,53.6,59.9,53.6,59.5z"/>
	<path id="Path_49" class="st1" d="M61.7,20.7v1.8c-0.5-0.1-1.1-0.1-1.7-0.1c-0.5,0-0.6,0-0.6-0.6c0-1.3,0-1.1,1-1.1   C60.9,20.8,61.3,20.8,61.7,20.7z"/>
	<path id="Path_50" class="st1" d="M68.5,60.5c-0.1-0.1-0.1-0.1,0-0.2s0.1,0,0.2,0C68.6,60.4,68.6,60.5,68.5,60.5z"/>
	<path id="Path_52" class="st1" d="M124.3,49.7c-0.3-0.1-0.7-0.2-1-0.2c-1.6-0.2-3.1,0.5-3.9,1.9c-0.7,1.1-1.2,2.4-1.4,3.7   c-0.5,2.5-0.6,5.1-0.3,7.7c0.1,1.8,0.5,3.5,1.2,5.2c0,0.1,0,0.1,0,0.2c-0.9-0.4-1.6-1.2-1.9-2.2c0-0.4-0.1-0.8-0.3-1.2   c-0.7-2.7-0.9-5.6-0.7-8.4c0.1-1.4,0.3-2.8,0.7-4.1c0.3-1,0.7-1.9,1.3-2.7c0.8-1.1,2-1.7,3.3-1.7c0.6,0,1.2,0.2,1.7,0.3   C123.6,48.5,124.1,49.1,124.3,49.7z"/>
	<path id="Path_53" class="st2" d="M132.2,47.7c0.4,0.6,0.7,1.2,0.9,1.9c0.7,2,1.1,4,1.3,6.1c0.3,3.3,0.1,6.6-0.7,9.8   c-0.5,2.1-1.4,4.2-2.7,6c-1.7,2.3-4.2,3.9-7,4.4c-2.6,0.5-5.3,0.3-7.8-0.6c-0.5-0.2-0.9-0.4-1.3-0.7c0.7,0.2,1.4,0.6,2.2,0.8   c2.6,0.7,5.3,0.7,7.8-0.1c3.1-1,5.6-3.2,7-6.2c1-2,1.6-4.2,1.9-6.4c0.4-3,0.4-6.1,0-9.1c-0.2-1.8-0.7-3.6-1.4-5.2   C132.3,48.2,132.2,47.9,132.2,47.7z"/>
	<path id="Path_54" class="st2" d="M123,48.2c-0.6-0.2-1.1-0.3-1.7-0.3c-1.3-0.1-2.6,0.6-3.3,1.7c-0.6,0.8-1,1.7-1.3,2.7   c-0.4,1.3-0.6,2.7-0.7,4.1c-0.2,2.8,0,5.6,0.7,8.4c0.2,0.4,0.3,0.8,0.3,1.2c-0.5-0.9-0.9-1.9-1-3c-0.6-3.4-0.6-6.9,0.1-10.2   c0.2-1.2,0.7-2.3,1.3-3.3c0.9-1.5,2.6-2.2,4.3-1.8C122.2,47.7,122.7,47.9,123,48.2z"/>
	<path id="Path_55" class="st2" d="M53.3,25.2c0.1,0.1,0.3,0.2,0.2,0.4C53.4,25.5,53.3,25.3,53.3,25.2z"/>
	<path id="Path_56" class="st2" d="M52.6,34.6c-0.1-0.1-0.3,0.1-0.3-0.2C52.4,34.4,52.5,34.5,52.6,34.6z"/>
	<path id="Path_57" class="st2" d="M53.2,24.9c0.1,0.1,0.1,0.2,0.2,0.3C53.2,25.1,53.2,25,53.2,24.9z"/>
	<path id="Path_58" class="st2" d="M16.5,48.4c-0.3,0-0.6-0.1-0.9-0.2c-1.2-0.4-2.5-0.5-3.8-0.4c-1.7,0-3,1.4-3,3.1   c0,0.3,0,0.5,0.1,0.8c0,0.1,0,0.2,0,0.3c-0.8-1.1-0.6-2.7,0.4-3.6c0.4-0.4,0.9-0.7,1.5-0.8C12.8,47.2,14.8,47.5,16.5,48.4z"/>
	<path id="Path_59" class="st2" d="M16.9,48.5c-0.2,0-0.3,0-0.5-0.2C16.6,48.3,16.8,48.4,16.9,48.5z"/>
	<path id="Path_60" class="st2" d="M20.2,61.2c0.1,0.1,0.2,0.2,0.2,0.3C20.2,61.5,20.3,61.2,20.2,61.2z"/>
	<path id="Path_61" class="st2" d="M17.2,48.7c-0.1,0-0.2,0-0.3-0.2C17,48.5,17.2,48.5,17.2,48.7z"/>
	<path id="Path_62" class="st2" d="M17.3,48.7c-0.1,0.1-0.1,0-0.2,0H17.3z"/>
	<path id="Path_63" class="st2" d="M183.5,48.2c-0.4,0-0.7-0.1-1.1-0.2c-1.1-0.3-2.2-0.3-3.3-0.2c-1.7,0.1-3,1.5-2.9,3.2   c0,0.1,0,0.1,0,0.2c0,0.2,0,0.4,0,0.6c-0.8-1.3-0.4-3,0.9-3.8c0.6-0.4,1.3-0.6,2.1-0.6c1.1,0,2.2,0.1,3.2,0.5   C182.9,48,183.3,47.8,183.5,48.2z"/>
	<path id="Path_64" class="st2" d="M184,48.4c-0.2,0-0.4,0-0.5-0.2C183.7,48.1,183.9,48.2,184,48.4z"/>
	<path id="Path_65" class="st2" d="M184.2,48.4c-0.1,0.2-0.2,0.1-0.3,0C184,48.4,184.1,48.4,184.2,48.4z"/>
	<path id="Path_66" class="st2" d="M88.2,48.7c-0.3,0-0.6-0.1-0.8-0.2c-1.4-0.6-3-0.8-4.5-0.7c-1.7,0-3,1.3-3.1,3   c0,0.2,0,0.4,0.1,0.6v0.4c-0.3-0.1-0.3-0.4-0.3-0.7c-0.3-1.4,0.4-2.8,1.7-3.4c0.5-0.2,1.1-0.4,1.6-0.4   C84.7,47.3,86.5,47.8,88.2,48.7z"/>
	<path id="Path_67" class="st2" d="M91.2,61.3c0.2,0.1,0.2,0.2,0.2,0.5C91.2,61.7,91.2,61.5,91.2,61.3z"/>
	<path id="Path_68" class="st2" d="M79.8,51.8c0.2,0.1,0.1,0.2,0.2,0.3C79.8,52,79.7,51.9,79.8,51.8z"/>
</g>
</svg>