<?xml version="1.0" encoding="UTF-8" standalone="no"?>
<svg
   width="135"
   height="32"
   viewBox="0 0 135 32"
   fill="none"
   version="1.1"
   id="svg15"
   sodipodi:docname="localfoundation_light.svg"
   inkscape:version="1.4 (e7c3feb100, 2024-10-09)"
   xmlns:inkscape="http://www.inkscape.org/namespaces/inkscape"
   xmlns:sodipodi="http://sodipodi.sourceforge.net/DTD/sodipodi-0.dtd"
   xmlns="http://www.w3.org/2000/svg"
   xmlns:svg="http://www.w3.org/2000/svg">
  <defs
     id="defs15" />
  <sodipodi:namedview
     id="namedview15"
     pagecolor="#ffffff"
     bordercolor="#000000"
     borderopacity="0.25"
     inkscape:showpageshadow="2"
     inkscape:pageopacity="0.0"
     inkscape:pagecheckerboard="0"
     inkscape:deskcolor="#d1d1d1"
     inkscape:zoom="10.096296"
     inkscape:cx="67.5"
     inkscape:cy="27.881511"
     inkscape:window-width="1920"
     inkscape:window-height="1006"
     inkscape:window-x="0"
     inkscape:window-y="0"
     inkscape:window-maximized="1"
     inkscape:current-layer="svg15" />
  <path
     d="M3.85536 11.3559H1.99994V13.2119H0.144531V11.3559H1.99994V5.78803H3.85536V0.220155H7.56618V2.07611H5.71077V5.78803H3.85536V11.3559ZM9.42159 13.2119H7.56618V11.3559H9.42159V9.49995H11.277V11.3559H9.42159V13.2119Z"
     fill="black"
     id="path1"
     style="fill:#ffffff;fill-opacity:1" />
  <path
     d="M18.5059 13.2119V11.9127H21.1034V10.6135H22.4022V8.01518H23.701V2.8185H22.4022V1.51933H21.1034V0.220155H23.701V1.51933H24.9998V9.31435H23.701V10.6135H22.4022V11.9127H21.1034V13.2119H18.5059ZM15.9083 11.9127H17.2071V13.2119H14.6095V11.9127H13.3107V4.11767H14.6095V2.8185H15.9083V1.51933H17.2071V0.220155H19.8047V1.51933H17.2071V4.11767H15.9083V6.71601H14.6095V10.6135H15.9083V11.9127Z"
     fill="black"
     id="path2"
     style="fill:#ffffff;fill-opacity:1" />
  <path
     d="M34.0949 12.2839V13.2119H29.4564V12.2839H28.5287V11.3559H27.601V9.49995H26.6733V6.71601H27.601V3.93207H28.5287V3.00409H29.4564V2.07611H30.3841V1.14813H31.3118V0.220155H36.8781V1.14813H39.6612V3.00409H38.7335V4.86005H37.8058V3.00409H36.8781V1.14813H32.2395V2.07611H31.3118V3.00409H30.3841V4.86005H29.4564V7.64399H28.5287V8.57197H29.4564V11.3559H30.3841V12.2839H34.0949ZM35.9504 11.3559V12.2839H35.0227V11.3559H35.9504V10.4279H36.8781V11.3559H35.9504Z"
     fill="black"
     id="path3"
     style="fill:#ffffff;fill-opacity:1" />
  <path
     d="M47.8322 8.67508H48.6569V8.26264H42.4722V8.46886H42.266V8.67508H42.0598V9.08751H41.8537V9.29373H41.6475V9.49995H41.4414V9.91238H41.2352V10.1186H41.0291V10.3248H40.8229V10.7373H40.6168V10.9435H40.4106V11.3559H40.2044V12.1808H40.4106V12.387H40.6168V12.5932H41.2352V13.2119H36.9059V13.0056H37.1121V12.5932H37.5244V12.387H37.9367V12.1808H38.349V11.9746H38.5552V11.7683H38.7613V11.5621H38.9675V11.3559H39.1737V11.1497H39.3798V10.9435H39.586V10.531H39.7921V10.3248H39.9983V10.1186H40.2044V9.70617H40.4106V9.49995H40.6168V9.29373H40.8229V9.08751H41.0291V8.67508H41.2352V8.46886H41.4414V8.26264H41.6475V7.85021H41.8537V7.64399H42.0598V7.43777H42.266V7.02534H42.4722V6.81912H42.6783V6.6129H42.8845V6.40668H43.0906V5.99425H43.2968V5.78803H43.5029V5.58181H43.7091V5.16938H43.9153V4.96316H44.1214V4.75694H44.3276V4.34451H44.5337V4.13829H44.7399V3.93207H44.946V3.51964H45.1522V3.31342H45.3584V3.1072H45.5645V2.90098H45.7707V2.48855H45.9768V2.28233H46.183V2.07611H46.3891V1.66368H46.5953V1.45746H46.8015V1.25124H47.2138V0.824796H47.4199V0.618579H47.6261V0.41236H48.0384V0.206217H48.2446V0H48.4507V0.00166206L49.2753 0.00171221V0.206217H49.4815V2.48855H49.6877V5.37559H49.8938V8.46886H50.1V11.3559H50.3061V11.9746H50.5123V12.1808H50.7184V12.387H51.1308V12.5932H51.5431V12.7994H51.3369V13.2119H46.3891V12.5932H47.2138V12.387H47.6261V12.1808H47.8322V11.7683H48.0384V9.49995H47.8322V8.67508ZM43.0906 7.64399H47.8322V5.58181H47.6261V2.28233H47.4199V1.8699H47.2138V2.07611H47.0076V2.48855H46.8015V2.69477H46.5953V2.90098H46.3891V3.31342H46.183V3.51964H45.9768V3.72586H45.7707V4.13829H45.5645V4.34451H45.3584V4.75694H45.1522V4.96316H44.946V5.16938H44.7399V5.58181H44.5337V5.78803H44.3276V5.99425H44.1214V6.40668H43.9153V6.6129H43.7091V6.81912H43.5029V7.23155H43.2968V7.43777H43.0906V7.64399Z"
     fill="black"
     id="path4"
     style="fill:#ffffff;fill-opacity:1" />
  <path
     d="M63.3489 13.2119H52.8101L53.0142 12.6736L53.441 12.6365C54.2759 12.5623 54.8511 12.1168 55.1665 11.2631L58.6547 2.16891C58.9701 1.29661 58.7103 0.8883 57.8012 0.795502L57.4115 0.758384L57.6156 0.220155H63.052L62.8479 0.758384L62.4026 0.795502C61.512 0.869741 60.8997 1.31517 60.5843 2.16891L56.7807 12.0797H56.1499L56.02 12.4509H60.139C61.6233 12.4509 62.8665 11.6343 64.0539 9.7969L64.8332 8.59053H65.4269L63.3489 13.2119Z"
     fill="black"
     id="path5"
     style="fill:#ffffff;fill-opacity:1" />
  <path
     d="M0.144531 31.7859V16.6633H10.0988V19.2994H3.32315V22.9028H9.43815V25.539H3.32315V31.7859H0.144531Z"
     fill="black"
     id="path6"
     style="fill:#ffffff;fill-opacity:1" />
  <path
     d="M26.0525 24.2246C26.0525 25.8737 25.7417 27.2767 25.1202 28.4335C24.5036 29.5903 23.6618 30.474 22.5949 31.0844C21.5329 31.6899 20.3388 31.9926 19.0125 31.9926C17.6765 31.9926 16.4775 31.6874 15.4155 31.077C14.3535 30.4666 13.5142 29.583 12.8976 28.4261C12.2809 27.2693 11.9726 25.8688 11.9726 24.2246C11.9726 22.5755 12.2809 21.1725 12.8976 20.0157C13.5142 18.8589 14.3535 17.9777 15.4155 17.3722C16.4775 16.7618 17.6765 16.4566 19.0125 16.4566C20.3388 16.4566 21.5329 16.7618 22.5949 17.3722C23.6618 17.9777 24.5036 18.8589 25.1202 20.0157C25.7417 21.1725 26.0525 22.5755 26.0525 24.2246ZM22.8298 24.2246C22.8298 23.1564 22.6708 22.2555 22.3527 21.522C22.0395 20.7885 21.5966 20.2323 21.024 19.8532C20.4514 19.4742 19.7809 19.2847 19.0125 19.2847C18.2442 19.2847 17.5737 19.4742 17.0011 19.8532C16.4285 20.2323 15.9832 20.7885 15.6651 21.522C15.3519 22.2555 15.1953 23.1564 15.1953 24.2246C15.1953 25.2928 15.3519 26.1937 15.6651 26.9272C15.9832 27.6606 16.4285 28.2169 17.0011 28.596C17.5737 28.975 18.2442 29.1645 19.0125 29.1645C19.7809 29.1645 20.4514 28.975 21.024 28.596C21.5966 28.2169 22.0395 27.6606 22.3527 26.9272C22.6708 26.1937 22.8298 25.2928 22.8298 24.2246Z"
     fill="black"
     id="path7"
     style="fill:#ffffff;fill-opacity:1" />
  <path
     d="M37.6934 16.6633H40.872V26.4841C40.872 27.5868 40.6102 28.5516 40.0865 29.3787C39.5678 30.2057 38.841 30.8505 37.9063 31.3133C36.9715 31.7711 35.8826 32 34.6395 32C33.3916 32 32.3002 31.7711 31.3655 31.3133C30.4308 30.8505 29.704 30.2057 29.1852 29.3787C28.6665 28.5516 28.4071 27.5868 28.4071 26.4841V16.6633H31.5857V26.2109C31.5857 26.7869 31.7105 27.2988 31.9601 27.7468C32.2146 28.1947 32.5719 28.5467 33.0319 28.8027C33.4919 29.0587 34.0278 29.1867 34.6395 29.1867C35.2562 29.1867 35.7921 29.0587 36.2472 28.8027C36.7072 28.5467 37.0621 28.1947 37.3116 27.7468C37.5661 27.2988 37.6934 26.7869 37.6934 26.2109V16.6633Z"
     fill="black"
     id="path8"
     style="fill:#ffffff;fill-opacity:1" />
  <path
     d="M56.0622 16.6633V31.7859H53.3167L46.7759 22.2678H46.6658V31.7859H43.4872V16.6633H46.2768L52.7661 26.174H52.8983V16.6633H56.0622Z"
     fill="black"
     id="path9"
     style="fill:#ffffff;fill-opacity:1" />
  <path
     d="M64.0179 31.7859H58.6884V16.6633H64.062C65.5742 16.6633 66.876 16.9661 67.9674 17.5716C69.0587 18.1721 69.898 19.0361 70.4853 20.1634C71.0775 21.2907 71.3736 22.6395 71.3736 24.2098C71.3736 25.7851 71.0775 27.1388 70.4853 28.2711C69.898 29.4033 69.0538 30.2721 67.9527 30.8776C66.8564 31.4831 65.5449 31.7859 64.0179 31.7859ZM61.8671 29.0464H63.8858C64.8254 29.0464 65.6158 28.879 66.2569 28.5443C66.9029 28.2046 67.3874 27.6803 67.7104 26.9715C68.0383 26.2577 68.2023 25.3371 68.2023 24.2098C68.2023 23.0924 68.0383 22.1792 67.7104 21.4703C67.3874 20.7615 66.9054 20.2397 66.2643 19.9049C65.6232 19.5702 64.8328 19.4028 63.8931 19.4028H61.8671V29.0464Z"
     fill="black"
     id="path10"
     style="fill:#ffffff;fill-opacity:1" />
  <path
     d="M75.4716 31.7859H72.0654L77.2555 16.6633H81.3517L86.5344 31.7859H83.1282L79.3623 20.1191H79.2449L75.4716 31.7859ZM75.2587 25.8417H83.3044V28.3375H75.2587V25.8417Z"
     fill="black"
     id="path11"
     style="fill:#ffffff;fill-opacity:1" />
  <path
     d="M85.9343 19.2994V16.6633H98.2817V19.2994H93.679V31.7859H90.537V19.2994H85.9343Z"
     fill="black"
     id="path12"
     style="fill:#ffffff;fill-opacity:1" />
  <path
     d="M103.494 16.6633V31.7859H100.315V16.6633H103.494Z"
     fill="black"
     id="path13"
     style="fill:#ffffff;fill-opacity:1" />
  <path
     d="M119.925 24.2246C119.925 25.8737 119.614 27.2767 118.992 28.4335C118.376 29.5903 117.534 30.474 116.467 31.0844C115.405 31.6899 114.211 31.9926 112.885 31.9926C111.549 31.9926 110.35 31.6874 109.288 31.077C108.226 30.4666 107.386 29.583 106.77 28.4261C106.153 27.2693 105.845 25.8688 105.845 24.2246C105.845 22.5755 106.153 21.1725 106.77 20.0157C107.386 18.8589 108.226 17.9777 109.288 17.3722C110.35 16.7618 111.549 16.4566 112.885 16.4566C114.211 16.4566 115.405 16.7618 116.467 17.3722C117.534 17.9777 118.376 18.8589 118.992 20.0157C119.614 21.1725 119.925 22.5755 119.925 24.2246ZM116.702 24.2246C116.702 23.1564 116.543 22.2555 116.225 21.522C115.912 20.7885 115.469 20.2323 114.896 19.8532C114.323 19.4742 113.653 19.2847 112.885 19.2847C112.116 19.2847 111.446 19.4742 110.873 19.8532C110.301 20.2323 109.855 20.7885 109.537 21.522C109.224 22.2555 109.067 23.1564 109.067 24.2246C109.067 25.2928 109.224 26.1937 109.537 26.9272C109.855 27.6606 110.301 28.2169 110.873 28.596C111.446 28.975 112.116 29.1645 112.885 29.1645C113.653 29.1645 114.323 28.975 114.896 28.596C115.469 28.2169 115.912 27.6606 116.225 26.9272C116.543 26.1937 116.702 25.2928 116.702 24.2246Z"
     fill="black"
     id="path14"
     style="fill:#ffffff;fill-opacity:1" />
  <path
     d="M134.854 16.6633V31.7859H132.109L125.568 22.2678H125.458V31.7859H122.279V16.6633H125.069L131.558 26.174H131.69V16.6633H134.854Z"
     fill="black"
     id="path15"
     style="fill:#ffffff;fill-opacity:1" />
</svg>
